<svg width="20" height="20" class="icon icon-active-track" viewBox="0 0 20 20" fill="none" xmlns="http://www.w3.org/2000/svg">
<rect width="20" height="20" rx="10" fill="#122023"/>
<path d="M4.36364 6.125V6.82955H11.0568V12.1136H8.88823C8.73112 11.5081 8.1865 11.0568 7.53409 11.0568C6.88169 11.0568 6.33707 11.5081 6.17996 12.1136H5.77273V10.3523H5.06819V12.8182H6.17996C6.33707 13.4237 6.88169 13.875 7.53409 13.875C8.1865 13.875 8.73112 13.4237 8.88823 12.8182H11.8163C11.9734 13.4237 12.518 13.875 13.1705 13.875C13.8229 13.875 14.3675 13.4237 14.5246 12.8182H15.6364V9.94505L15.6142 9.88974L14.9096 7.7761L14.8332 7.53409H11.7614V6.125H4.36364ZM4.71591 7.53409V8.23864H7.88637V7.53409H4.71591ZM11.7614 8.23864H14.3263L14.9318 10.044V12.1136H14.5246C14.3675 11.5081 13.8229 11.0568 13.1705 11.0568C12.518 11.0568 11.9734 11.5081 11.8163 12.1136H11.7614V8.23864ZM5.06819 8.94318V9.64773H7.18182V8.94318H5.06819ZM7.53409 11.7614C7.92758 11.7614 8.23864 12.0724 8.23864 12.4659C8.23864 12.8594 7.92758 13.1705 7.53409 13.1705C7.14061 13.1705 6.82955 12.8594 6.82955 12.4659C6.82955 12.0724 7.14061 11.7614 7.53409 11.7614ZM13.1705 11.7614C13.5639 11.7614 13.875 12.0724 13.875 12.4659C13.875 12.8594 13.5639 13.1705 13.1705 13.1705C12.777 13.1705 12.4659 12.8594 12.4659 12.4659C12.4659 12.0724 12.777 11.7614 13.1705 11.7614Z" fill="#EFEFEF"/>
</svg>